<?xml version="1.0" encoding="iso-8859-1"?>
<!-- Uploaded to: SVG Repo, www.svgrepo.com, Generator: SVG Repo Mixer Tools -->
<svg version="1.1" id="Layer_1" xmlns="http://www.w3.org/2000/svg" xmlns:xlink="http://www.w3.org/1999/xlink" 
	 viewBox="0 0 512 512" xml:space="preserve">
<path style="fill:#9D2422;" d="M502.801,187.809C472.949,79.53,373.769,0,256,0C114.616,0,0,114.616,0,256
	c0,117.769,79.53,216.949,187.809,246.801L502.801,187.809z"/>
<path style="fill:#701C12;" d="M512,256c0-23.615-3.213-46.477-9.199-68.191l-82.07-82.07L46.748,183.652l137.656,137.656
	L91.27,406.261l96.54,96.54C209.522,508.787,232.385,512,256,512C397.384,512,512,397.384,512,256z"/>
<polygon style="fill:#F97D85;" points="256,105.739 230.029,222.609 256,406.261 420.73,406.261 420.73,150.261 "/>
<polygon style="fill:#FB9DA4;" points="91.27,150.261 91.27,406.261 256,406.261 256,105.739 "/>
<rect x="211.478" y="361.739" style="fill:#F97D85;" width="22.261" height="22.261"/>
<polygon style="fill:#FEF2CC;" points="211.478,183.652 46.748,183.652 91.27,105.739 256,105.739 "/>
<polygon style="fill:#FCBEC2;" points="420.73,105.739 256,105.739 300.522,183.652 465.252,183.652 "/>
<g>
	<rect x="342.817" y="283.826" style="fill:#F85C67;" width="22.261" height="22.261"/>
	<rect x="376.209" y="317.217" style="fill:#F85C67;" width="22.261" height="22.261"/>
</g>
</svg>